{"accessors":[{"bufferView":0,"componentType":5126,"count":2,"max":[1.0,1.2246468525851679e-16,1.2246468525851679e-16,0.0,1.2246468525851679e-16,1.0,0.0,0.0,0.0,0.0,1.0,0.0,0.0,0.5807222127914429,0.00532405124977231,1.0],"min":[-1.0,0.0,0.0,0.0,0.0,1.0,-9.957992628395942e-17,0.0,-1.2246468525851679e-16,-9.957992628395942e-17,-1.0,0.0,-8.313226699829102,0.0,0.0,1.0],"type":"MAT4"},{"bufferView":1,"componentType":5125,"count":8640,"max":[1978.0],"min":[0.0],"type":"SCALAR"},{"bufferView":2,"componentType":5126,"count":1979,"max":[-8.315251350402832,10.500608444213868,6.506293773651123],"min":[-17.616567611694337,-0.4993929862976074,-6.475706577301025],"type":"VEC3"},{"bufferView":3,"componentType":5126,"count":1979,"max":[1.0,1.0,1.0],"min":[-1.0,-1.0,-1.0],"type":"VEC3"},{"bufferView":4,"componentType":5126,"count":1979,"max":[0.9663512706756592,0.9990661144256592],"min":[0.0,0.0],"type":"VEC2"},{"bufferView":5,"componentType":5123,"count":1979,"max":[0.0,0.0,0.0,0.0],"min":[0.0,0.0,0.0,0.0],"type":"VEC4"},{"bufferView":6,"componentType":5126,"count":1979,"max":[1.0,0.0,0.0,0.0],"min":[1.0,0.0,0.0,0.0],"type":"VEC4"},{"bufferView":7,"componentType":5125,"count":25872,"max":[25871.0],"min":[0.0],"type":"SCALAR"},{"bufferView":8,"componentType":5126,"count":25872,"max":[19.35496711730957,10.844505310058594,10.964874267578125],"min":[-8.313228607177735,-0.8445044159889221,-10.964874267578125],"type":"VEC3"},{"bufferView":9,"componentType":5126,"count":25872,"max":[1.0,1.0,1.0],"min":[-1.0,-1.0,-1.0],"type":"VEC3"},{"bufferView":10,"componentType":5126,"count":25872,"max":[0.9978749752044678,1.0],"min":[0.0,0.005271017551422119],"type":"VEC2"},{"bufferView":11,"componentType":5126,"count":360,"max":[12.0],"min":[0.03333333507180214],"type":"SCALAR"},{"bufferView":12,"componentType":5126,"count":360,"max":[-8.313226699829102,-0.5807222127914429,0.00532405124977231],"min":[-8.313226699829102,-0.5807222127914429,0.00532405124977231],"type":"VEC3"},{"bufferView":13,"componentType":5126,"count":360,"max":[0.9262093901634216,1.0,0.003108638571575284,6.123234262925839e-17],"min":[-0.7031319737434387,-0.7045968770980835,-0.0025380621664226057,-0.0008718416793271899],"type":"VEC4"},{"bufferView":14,"componentType":5126,"count":360,"max":[1.0,1.0,1.0],"min":[1.0,1.0,1.0],"type":"VEC3"}],"animations":[{"name":"Take 001","channels":[{"sampler":0,"target":{"node":1,"path":"scale"}},{"sampler":1,"target":{"node":1,"path":"translation"}},{"sampler":2,"target":{"node":1,"path":"rotation"}}],"samplers":[{"input":11,"interpolation":"LINEAR","output":14},{"input":11,"interpolation":"LINEAR","output":12},{"input":11,"interpolation":"LINEAR","output":13}]}],"asset":{"generator":"SimLab GLTF","version":"2.0"},"bufferViews":[{"buffer":0,"byteLength":128},{"buffer":0,"byteLength":34560,"byteOffset":128,"target":34963},{"buffer":0,"byteLength":23748,"byteOffset":34688,"byteStride":12,"target":34962},{"buffer":0,"byteLength":23748,"byteOffset":58436,"byteStride":12,"target":34962},{"buffer":0,"byteLength":15832,"byteOffset":82184,"byteStride":8,"target":34962},{"buffer":0,"byteLength":15832,"byteOffset":98016,"byteStride":8,"target":34962},{"buffer":0,"byteLength":31664,"byteOffset":113848,"byteStride":16,"target":34962},{"buffer":0,"byteLength":103488,"byteOffset":145512,"target":34963},{"buffer":0,"byteLength":310464,"byteOffset":249000,"byteStride":12,"target":34962},{"buffer":0,"byteLength":310464,"byteOffset":559464,"byteStride":12,"target":34962},{"buffer":0,"byteLength":206976,"byteOffset":869928,"byteStride":8,"target":34962},{"buffer":0,"byteLength":1440,"byteOffset":1076904,"byteStride":4},{"buffer":0,"byteLength":4320,"byteOffset":1078344,"byteStride":12},{"buffer":0,"byteLength":5760,"byteOffset":1082664,"byteStride":16},{"buffer":0,"byteLength":4320,"byteOffset":1088424,"byteStride":12}],"buffers":[{"byteLength":1092744,"uri":"Bomb.bin"}],"images":[{"mimeType":"image/png","uri":"Textures/UV_Checker_2K_01.png"}],"materials":[{"name":"Bomb_Material","alphaMode":"MASK","doubleSided":true,"pbrMetallicRoughness":{"baseColorTexture":{"index":0},"roughnessFactor":0.9854999780654907}}],"meshes":[{"primitives":[{"attributes":{"JOINTS_0":5,"NORMAL":3,"POSITION":2,"TEXCOORD_0":4,"WEIGHTS_0":6},"indices":1,"material":0,"mode":4}]},{"primitives":[{"attributes":{"NORMAL":9,"POSITION":8,"TEXCOORD_0":10},"indices":7,"material":0,"mode":4}]}],"nodes":[{"children":[3,4,5,6,7],"matrix":[1.0,0.0,0.0,0.0,0.0,4.4896593387466768e-11,-1.0,0.0,0.0,1.0,4.4896593387466768e-11,0.0,0.0,0.0,0.0,1.0]},{"name":"skeletonJoint_0","rotation":[-0.0,1.0,6.162975822039155e-33,6.123234262925839e-17],"translation":[-8.313226699829102,-0.5807222127914429,0.00532405124977231]},{"name":"SkeletonRoot_0","children":[1,8],"rotation":[0.0,0.0,0.0,-1.0]},{"name":"front","rotation":[-0.7071067690849304,0.0,0.0,-0.7071067690849304],"translation":[-0.08178737759590149,-10.00100040435791,-0.004846640862524509]},{"name":"persp","rotation":[0.7942646741867065,-0.03745657205581665,0.028566116467118264,-0.6057430505752564],"translation":[0.09931526333093643,1.527703881263733,-0.3735054135322571]},{"name":"side","rotation":[-0.5,-0.5,-0.5,-0.5],"translation":[10.00100040435791,0.0039030539337545635,0.04229722544550896]},{"name":"top","rotation":[0.0,0.0,0.0,-1.0],"translation":[-0.04429122060537338,-0.004555650055408478,10.00100040435791]},{"name":"Body_Mesh","children":[2,11],"rotation":[-0.7071067690849304,0.0,0.0,-0.7071067690849304],"scale":[0.03028273768723011,0.03028273768723011,0.03028273768723011],"translation":[-0.017629751935601236,-6.938893903907229e-18,-0.10141369700431824]},{"name":"Nose_Mesh","children":[10],"rotation":[0.0,0.0,0.0,-1.0]},{"mesh":0,"skin":0},{"children":[9]},{"name":"Assembly-2","children":[13],"rotation":[0.0,0.0,0.0,-1.0]},{"mesh":1},{"children":[12]}],"samplers":[{"wrapS":10497,"wrapT":10497}],"scene":0,"scenes":[{"nodes":[0]}],"skins":[{"name":"SkeletonRoot_0","inverseBindMatrices":0,"joints":[1,2],"skeleton":2}],"textures":[{"source":0}]}